<svg width="174" height="66" viewBox="0 0 174 66" fill="none" xmlns="http://www.w3.org/2000/svg">
<g clip-path="url(#clip0_958_8274)">
<path d="M140.511 64.1846C139.97 63.5151 139.326 62.9228 138.888 62.2018C135.978 57.2061 133.12 52.1846 130.184 47.2147C129.515 46.0559 129.438 45.0258 130.133 43.867C133.146 38.7426 136.133 33.6181 139.069 28.4421C139.738 27.2576 140.639 26.7683 141.978 26.7683C147.875 26.7941 153.772 26.7941 159.669 26.7683C160.957 26.7683 161.833 27.2833 162.451 28.3649C165.438 33.5666 168.425 38.7683 171.438 43.9443C172.056 45.0001 172.081 45.9271 171.463 46.9829C168.451 52.1589 165.463 57.3606 162.451 62.5623C162.116 63.1546 161.601 63.6439 161.163 64.1846C154.287 64.1846 147.386 64.1846 140.511 64.1846ZM159.875 45.5666C159.875 40.4421 155.833 36.322 150.785 36.322C145.893 36.322 141.695 40.3906 141.644 45.2061C141.566 50.3821 145.687 54.631 150.76 54.631C155.73 54.631 159.875 50.5108 159.875 45.5666Z" fill="black"/>
<path d="M13.5578 52.0815V62.7167C13.5578 63.4378 12.9655 64.03 12.2445 64.03H3.59211C2.87108 64.03 2.27881 63.4378 2.27881 62.7167V28.2103C2.27881 27.4892 2.87108 26.897 3.59211 26.897H12.2187C12.9398 26.897 13.532 27.4892 13.532 28.2103V39.4893C13.532 40.2103 14.1243 40.8026 14.8453 40.8026H26.7938C27.5149 40.8026 28.1071 40.2103 28.1071 39.4893V28.2103C28.1071 27.4892 28.6994 26.897 29.4204 26.897H38.0471C38.7681 26.897 39.3604 27.4892 39.3604 28.2103V62.7167C39.3604 63.4378 38.7681 64.03 38.0471 64.03H29.4204C28.6994 64.03 28.1071 63.4378 28.1071 62.7167V52.0815C28.1071 51.3605 27.5149 50.7682 26.7938 50.7682H14.8711C14.1501 50.7682 13.5578 51.3605 13.5578 52.0815Z" fill="black"/>
<path d="M82.0299 27.8755V34.339C82.0299 34.8798 81.5922 35.3176 81.0514 35.3176H58.8282C58.2874 35.3176 57.8497 35.7553 57.8497 36.2961V39.721C57.8497 40.2618 58.2874 40.6996 58.8282 40.6996H81.0514C81.5922 40.6996 82.0299 41.1373 82.0299 41.6781V49.7897C82.0299 50.3305 81.5922 50.7682 81.0514 50.7682H58.8282C58.2874 50.7682 57.8497 51.206 57.8497 51.7468V54.6051C57.8497 55.1459 58.2874 55.5837 58.8282 55.5837H81.0514C81.5922 55.5837 82.0299 56.0214 82.0299 56.5622V62.9227C82.0299 63.4635 81.5922 63.9013 81.0514 63.9013H48.2188C47.678 63.9013 47.2402 63.4635 47.2402 62.9227V27.8755C47.2402 27.3347 47.678 26.897 48.2188 26.897H81.0514C81.5922 26.897 82.0299 27.3347 82.0299 27.8755Z" fill="black"/>
<path d="M100.468 52.0815V62.7167C100.468 63.4378 99.8753 64.03 99.1543 64.03H91.1715C90.4504 64.03 89.8582 63.4378 89.8582 62.7167V28.2103C89.8582 27.4892 90.4504 26.897 91.1715 26.897H128.614C129.618 26.897 130.262 27.9785 129.747 28.8798L120.579 44.897C120.373 45.2575 120.347 45.6953 120.502 46.0815L129.386 62.2017C129.747 63.0772 129.129 64.03 128.176 64.03H118.854C118.339 64.03 117.85 63.721 117.644 63.2317L110.665 51.5665C110.459 51.0772 109.97 50.7682 109.455 50.7682H101.781C101.06 50.7682 100.468 51.3605 100.468 52.0815ZM100.468 36.0129V39.4377C100.468 40.1588 101.06 40.7511 101.781 40.7511H110.279C110.897 40.7511 111.412 40.339 111.566 39.7468L112.39 36.3219C112.596 35.4978 111.953 34.6996 111.103 34.6996H101.781C101.06 34.6996 100.468 35.2918 100.468 36.0129Z" fill="black"/>
<path d="M18.296 2.25317H2.89683C2.56207 2.25317 2.27881 2.56219 2.27881 2.9227V20.0987C2.27881 20.4592 2.53632 20.7682 2.87108 20.7682H6.73374C7.06851 20.7682 7.32602 20.4849 7.32602 20.0987V14.9485C7.32602 14.5879 7.58353 14.2789 7.91829 14.2789H15.3346C15.5406 14.2789 15.7466 14.1502 15.8496 13.9442L18.7852 8.40768C18.8367 8.30468 18.8625 8.20167 18.8625 8.07292V2.9227C18.914 2.56219 18.6307 2.25317 18.296 2.25317ZM7.35177 9.15446V7.01712C7.35177 6.65661 7.60928 6.3476 7.94404 6.3476H13.5063C13.841 6.3476 14.0986 6.63086 14.0986 7.01712V9.15446C14.0986 9.51498 13.841 9.82399 13.5063 9.82399H7.9698C7.63503 9.82399 7.35177 9.51498 7.35177 9.15446Z" fill="#CC2C49"/>
<path d="M37.1457 11.8068C37.0685 11.6266 37.0685 11.3948 37.1715 11.2145L39.5921 7.40339C39.6436 7.30039 39.6951 7.19738 39.6951 7.09438V2.8197C39.6951 2.51068 39.4376 2.25317 39.1285 2.25317H22.8796C22.5191 2.25317 22.2358 2.53644 22.2358 2.89695V20.0729C22.2358 20.4334 22.5191 20.7167 22.8796 20.7167H26.7423C27.1028 20.7167 27.3861 20.4334 27.3861 20.0729V14.7939C27.3861 14.4334 27.6693 14.1502 28.0298 14.1502H31.7637C32.0212 14.1502 32.253 14.3047 32.356 14.5364L34.7766 20.3304C34.8796 20.5622 35.1114 20.7167 35.3689 20.7167H39.9011C40.3646 20.7167 40.6736 20.2274 40.4933 19.7897L37.1457 11.8068ZM33.18 6.70811L32.768 8.66519C32.6908 8.94845 32.4333 9.15446 32.15 9.15446H28.0298C27.6693 9.15446 27.3861 8.8712 27.3861 8.51069V6.5536C27.3861 6.19309 27.6693 5.90983 28.0298 5.90983H32.562C32.974 5.88408 33.283 6.29609 33.18 6.70811Z" fill="#CC2C49"/>
<path d="M98.8195 2.76831V5.9872C98.8195 6.27046 98.6135 6.47647 98.356 6.47647H88.2101C87.9526 6.47647 87.7466 6.70823 87.7466 6.96574V8.66531C87.7466 8.94857 87.9526 9.15458 88.2101 9.15458H98.356C98.6135 9.15458 98.8195 9.38634 98.8195 9.64385V13.6868C98.8195 13.97 98.6135 14.176 98.356 14.176H88.2101C87.9526 14.176 87.7466 14.4078 87.7466 14.6653V16.0816C87.7466 16.3649 87.9526 16.5709 88.2101 16.5709H98.356C98.6135 16.5709 98.8195 16.8027 98.8195 17.0602V20.2275C98.8195 20.5108 98.6135 20.7168 98.356 20.7168H83.3432C83.0856 20.7168 82.8796 20.4851 82.8796 20.2275V2.71681C82.8796 2.43355 83.0856 2.22754 83.3432 2.22754H98.356C98.6135 2.25329 98.8195 2.48505 98.8195 2.76831Z" fill="#CC2C49"/>
<path d="M59.5235 2.25317H44.9999C44.3818 2.25317 43.8926 2.66519 43.8926 3.15446V19.8154C43.8926 20.3304 44.3818 20.7167 44.9999 20.7167H59.5235C60.1415 20.7167 60.6308 20.3047 60.6308 19.8154V3.18021C60.6565 2.66519 60.1415 2.25317 59.5235 2.25317ZM54.1673 15.5665C54.1673 15.8497 53.884 16.0815 53.5492 16.0815H50.9741C50.6394 16.0815 50.3561 15.8497 50.3561 15.5665V7.45489C50.3561 7.17163 50.6394 6.93987 50.9741 6.93987H53.5492C53.884 6.93987 54.1673 7.17163 54.1673 7.45489V15.5665Z" fill="#CC2C49"/>
<path d="M103.12 2.25317H117.927C118.313 2.25317 118.648 2.53644 118.648 2.8712V6.88837C118.648 7.22313 118.339 7.5064 117.927 7.5064H109.068C108.682 7.5064 108.347 7.78966 108.347 8.12442V14.9227C108.347 15.2575 108.656 15.5407 109.068 15.5407H117.927C118.313 15.5407 118.648 15.824 118.648 16.1588V20.1759C118.648 20.5107 118.339 20.794 117.927 20.794H103.12C102.734 20.794 102.399 20.5107 102.399 20.1759V2.8712C102.425 2.53644 102.734 2.25317 103.12 2.25317Z" fill="#CC2C49"/>
<path d="M133.712 8.17592V20.1244C133.712 20.4592 133.455 20.7425 133.12 20.7425H128.459C128.124 20.7425 127.867 20.4592 127.867 20.1244V8.17592C127.867 7.84116 127.609 7.5579 127.274 7.5579H122.614C122.279 7.5579 122.021 7.27464 122.021 6.93987V2.8712C122.021 2.53644 122.279 2.25317 122.614 2.25317H138.991C139.326 2.25317 139.583 2.53644 139.583 2.8712V6.91412C139.583 7.24888 139.326 7.53215 138.991 7.53215H134.33C133.97 7.5579 133.712 7.81541 133.712 8.17592Z" fill="#CC2C49"/>
<path d="M78.6049 2.33057H74.5105C73.9954 2.33057 73.5577 2.76833 73.5577 3.30911V15.5151C73.5577 16.0559 73.1457 16.4937 72.6049 16.4937H69.695C69.077 16.4937 68.562 15.9786 68.562 15.3606V10.4422C68.562 10.0816 68.2787 9.79838 67.9182 9.79838H64.622C64.2615 9.79838 63.9783 10.0816 63.9783 10.4422V17.2404H64.004C63.9783 17.3177 63.9783 17.3949 63.9783 17.498V19.7898C63.9783 20.3306 64.3903 20.7683 64.9311 20.7683H78.6049C79.1199 20.7683 79.5577 20.3306 79.5577 19.7898V3.30911C79.5577 2.76833 79.1199 2.33057 78.6049 2.33057Z" fill="#CC2C49"/>
</g>
<defs>
<clipPath id="clip0_958_8274">
<rect width="172.764" height="65.5108" fill="white" transform="translate(0.733887 0.296143)"/>
</clipPath>
</defs>
</svg>
