<svg width="671" height="255" viewBox="0 0 671 255" fill="none" xmlns="http://www.w3.org/2000/svg">
<path d="M542.799 248.1C540.699 245.5 538.199 243.2 536.499 240.4C525.199 221 514.099 201.5 502.699 182.2C500.099 177.7 499.799 173.7 502.499 169.2C514.199 149.3 525.799 129.4 537.199 109.3C539.799 104.7 543.299 102.8 548.499 102.8C571.399 102.9 594.299 102.9 617.199 102.8C622.199 102.8 625.599 104.8 627.999 109C639.599 129.2 651.199 149.4 662.899 169.5C665.299 173.6 665.399 177.2 662.999 181.3C651.299 201.4 639.699 221.6 627.999 241.8C626.699 244.1 624.699 246 622.999 248.1C596.299 248.1 569.499 248.1 542.799 248.1ZM617.999 175.8C617.999 155.9 602.299 139.9 582.699 139.9C563.699 139.9 547.399 155.7 547.199 174.4C546.899 194.5 562.899 211 582.599 211C601.899 211 617.999 195 617.999 175.8Z" fill="black"/>
<path d="M49.8 201.1V242.4C49.8 245.2 47.5 247.5 44.7 247.5H11.1C8.3 247.5 6 245.2 6 242.4V108.4C6 105.6 8.3 103.3 11.1 103.3H44.6C47.4 103.3 49.7 105.6 49.7 108.4V152.2C49.7 155 52 157.3 54.8 157.3H101.2C104 157.3 106.3 155 106.3 152.2V108.4C106.3 105.6 108.6 103.3 111.4 103.3H144.9C147.7 103.3 150 105.6 150 108.4V242.4C150 245.2 147.7 247.5 144.9 247.5H111.4C108.6 247.5 106.3 245.2 106.3 242.4V201.1C106.3 198.3 104 196 101.2 196H54.9C52.1 196 49.8 198.3 49.8 201.1Z" fill="black"/>
<path d="M315.7 107.1V132.2C315.7 134.3 314 136 311.9 136H225.6C223.5 136 221.8 137.7 221.8 139.8V153.1C221.8 155.2 223.5 156.9 225.6 156.9H311.9C314 156.9 315.7 158.6 315.7 160.7V192.2C315.7 194.3 314 196 311.9 196H225.6C223.5 196 221.8 197.7 221.8 199.8V210.9C221.8 213 223.5 214.7 225.6 214.7H311.9C314 214.7 315.7 216.4 315.7 218.5V243.2C315.7 245.3 314 247 311.9 247H184.4C182.3 247 180.6 245.3 180.6 243.2V107.1C180.6 105 182.3 103.3 184.4 103.3H311.9C314 103.3 315.7 105 315.7 107.1Z" fill="black"/>
<path d="M387.3 201.1V242.4C387.3 245.2 385 247.5 382.2 247.5H351.2C348.4 247.5 346.1 245.2 346.1 242.4V108.4C346.1 105.6 348.4 103.3 351.2 103.3H496.6C500.5 103.3 503 107.5 501 111L465.4 173.2C464.6 174.6 464.5 176.3 465.1 177.8L499.6 240.4C501 243.8 498.6 247.5 494.9 247.5H458.7C456.7 247.5 454.8 246.3 454 244.4L426.9 199.1C426.1 197.2 424.2 196 422.2 196H392.4C389.6 196 387.3 198.3 387.3 201.1ZM387.3 138.7V152C387.3 154.8 389.6 157.1 392.4 157.1H425.4C427.8 157.1 429.8 155.5 430.4 153.2L433.6 139.9C434.4 136.7 431.9 133.6 428.6 133.6H392.4C389.6 133.6 387.3 135.9 387.3 138.7Z" fill="black"/>
<path d="M68.2 7.59998H8.4C7.1 7.59998 6 8.79998 6 10.2V76.9C6 78.3 7 79.5 8.3 79.5H23.3C24.6 79.5 25.6 78.4 25.6 76.9V56.9C25.6 55.5 26.6 54.3 27.9 54.3H56.7C57.5 54.3 58.3 53.8 58.7 53L70.1 31.5C70.3 31.1 70.4 30.7 70.4 30.2V10.2C70.6 8.79998 69.5 7.59998 68.2 7.59998ZM25.7 34.4V26.1C25.7 24.7 26.7 23.5 28 23.5H49.6C50.9 23.5 51.9 24.6 51.9 26.1V34.4C51.9 35.8 50.9 37 49.6 37H28.1C26.8 37 25.7 35.8 25.7 34.4Z" fill="black"/>
<path d="M141.4 44.7C141.1 44 141.1 43.1 141.5 42.4L150.9 27.6C151.1 27.2 151.3 26.8 151.3 26.4V9.79998C151.3 8.59998 150.3 7.59998 149.1 7.59998H86C84.6 7.59998 83.5 8.69998 83.5 10.1V76.8C83.5 78.2 84.6 79.3 86 79.3H101C102.4 79.3 103.5 78.2 103.5 76.8V56.3C103.5 54.9 104.6 53.8 106 53.8H120.5C121.5 53.8 122.4 54.4 122.8 55.3L132.2 77.8C132.6 78.7 133.5 79.3 134.5 79.3H152.1C153.9 79.3 155.1 77.4 154.4 75.7L141.4 44.7ZM126 24.9L124.4 32.5C124.1 33.6 123.1 34.4 122 34.4H106C104.6 34.4 103.5 33.3 103.5 31.9V24.3C103.5 22.9 104.6 21.8 106 21.8H123.6C125.2 21.7 126.4 23.3 126 24.9Z" fill="black"/>
<path d="M380.9 9.6V22.1C380.9 23.2 380.1 24 379.1 24H339.7C338.7 24 337.9 24.9 337.9 25.9V32.5C337.9 33.6 338.7 34.4 339.7 34.4H379.1C380.1 34.4 380.9 35.3 380.9 36.3V52C380.9 53.1 380.1 53.9 379.1 53.9H339.7C338.7 53.9 337.9 54.8 337.9 55.8V61.3C337.9 62.4 338.7 63.2 339.7 63.2H379.1C380.1 63.2 380.9 64.1 380.9 65.1V77.4C380.9 78.5 380.1 79.3 379.1 79.3H320.8C319.8 79.3 319 78.4 319 77.4V9.4C319 8.3 319.8 7.5 320.8 7.5H379.1C380.1 7.6 380.9 8.5 380.9 9.6Z" fill="black"/>
<path d="M228.3 7.59998H171.9C169.5 7.59998 167.6 9.19998 167.6 11.1V75.8C167.6 77.8 169.5 79.3 171.9 79.3H228.3C230.7 79.3 232.6 77.7 232.6 75.8V11.2C232.7 9.19998 230.7 7.59998 228.3 7.59998ZM207.5 59.3C207.5 60.4 206.4 61.3 205.1 61.3H195.1C193.8 61.3 192.7 60.4 192.7 59.3V27.8C192.7 26.7 193.8 25.8 195.1 25.8H205.1C206.4 25.8 207.5 26.7 207.5 27.8V59.3Z" fill="black"/>
<path d="M397.601 7.59998H455.101C456.601 7.59998 457.901 8.69998 457.901 9.99998V25.6C457.901 26.9 456.701 28 455.101 28H420.701C419.201 28 417.901 29.1 417.901 30.4V56.8C417.901 58.1 419.101 59.2 420.701 59.2H455.101C456.601 59.2 457.901 60.3 457.901 61.6V77.2C457.901 78.5 456.701 79.6 455.101 79.6H397.601C396.101 79.6 394.801 78.5 394.801 77.2V9.99998C394.901 8.69998 396.101 7.59998 397.601 7.59998Z" fill="black"/>
<path d="M516.4 30.6V77C516.4 78.3 515.4 79.4 514.1 79.4H496C494.7 79.4 493.7 78.3 493.7 77V30.6C493.7 29.3 492.7 28.2 491.4 28.2H473.3C472 28.2 471 27.1 471 25.8V9.99998C471 8.69998 472 7.59998 473.3 7.59998H536.9C538.2 7.59998 539.2 8.69998 539.2 9.99998V25.7C539.2 27 538.2 28.1 536.9 28.1H518.8C517.4 28.2 516.4 29.2 516.4 30.6Z" fill="black"/>
<path d="M302.4 7.90002H286.5C284.5 7.90002 282.8 9.60002 282.8 11.7V59.1C282.8 61.2 281.2 62.9 279.1 62.9H267.8C265.4 62.9 263.4 60.9 263.4 58.5V39.4C263.4 38 262.3 36.9 260.9 36.9H248.1C246.7 36.9 245.6 38 245.6 39.4V65.8H245.7C245.6 66.1 245.6 66.4 245.6 66.8V75.7C245.6 77.8 247.2 79.5 249.3 79.5H302.4C304.4 79.5 306.1 77.8 306.1 75.7V11.7C306.1 9.60002 304.4 7.90002 302.4 7.90002Z" fill="black"/>
</svg>
