<svg width="671" height="255" viewBox="0 0 671 255" fill="none" xmlns="http://www.w3.org/2000/svg">
<g clip-path="url(#clip0)">
<path d="M542.799 248.1C540.699 245.5 538.199 243.2 536.499 240.4C525.199 221 514.099 201.5 502.699 182.2C500.099 177.7 499.799 173.7 502.499 169.2C514.199 149.3 525.799 129.4 537.199 109.3C539.799 104.7 543.299 102.8 548.499 102.8C571.399 102.9 594.299 102.9 617.199 102.8C622.199 102.8 625.599 104.8 627.999 109C639.599 129.2 651.199 149.4 662.899 169.5C665.299 173.6 665.399 177.2 662.999 181.3C651.299 201.4 639.699 221.6 627.999 241.8C626.699 244.1 624.699 246 622.999 248.1C596.299 248.1 569.499 248.1 542.799 248.1ZM617.999 175.8C617.999 155.9 602.299 139.9 582.699 139.9C563.699 139.9 547.399 155.7 547.199 174.4C546.899 194.5 562.899 211 582.599 211C601.899 211 617.999 195 617.999 175.8Z" fill="white"/>
<path d="M49.8 201.1V242.4C49.8 245.2 47.5 247.5 44.7 247.5H11.1C8.3 247.5 6 245.2 6 242.4V108.4C6 105.6 8.3 103.3 11.1 103.3H44.6C47.4 103.3 49.7 105.6 49.7 108.4V152.2C49.7 155 52 157.3 54.8 157.3H101.2C104 157.3 106.3 155 106.3 152.2V108.4C106.3 105.6 108.6 103.3 111.4 103.3H144.9C147.7 103.3 150 105.6 150 108.4V242.4C150 245.2 147.7 247.5 144.9 247.5H111.4C108.6 247.5 106.3 245.2 106.3 242.4V201.1C106.3 198.3 104 196 101.2 196H54.9C52.1 196 49.8 198.3 49.8 201.1Z" fill="white"/>
<path d="M315.7 107.1V132.2C315.7 134.3 314 136 311.9 136H225.6C223.5 136 221.8 137.7 221.8 139.8V153.1C221.8 155.2 223.5 156.9 225.6 156.9H311.9C314 156.9 315.7 158.6 315.7 160.7V192.2C315.7 194.3 314 196 311.9 196H225.6C223.5 196 221.8 197.7 221.8 199.8V210.9C221.8 213 223.5 214.7 225.6 214.7H311.9C314 214.7 315.7 216.4 315.7 218.5V243.2C315.7 245.3 314 247 311.9 247H184.4C182.3 247 180.6 245.3 180.6 243.2V107.1C180.6 105 182.3 103.3 184.4 103.3H311.9C314 103.3 315.7 105 315.7 107.1Z" fill="white"/>
<path d="M387.3 201.1V242.4C387.3 245.2 385 247.5 382.2 247.5H351.2C348.4 247.5 346.1 245.2 346.1 242.4V108.4C346.1 105.6 348.4 103.3 351.2 103.3H496.6C500.5 103.3 503 107.5 501 111L465.4 173.2C464.6 174.6 464.5 176.3 465.1 177.8L499.6 240.4C501 243.8 498.6 247.5 494.9 247.5H458.7C456.7 247.5 454.8 246.3 454 244.4L426.9 199.1C426.1 197.2 424.2 196 422.2 196H392.4C389.6 196 387.3 198.3 387.3 201.1ZM387.3 138.7V152C387.3 154.8 389.6 157.1 392.4 157.1H425.4C427.8 157.1 429.8 155.5 430.4 153.2L433.6 139.9C434.4 136.7 431.9 133.6 428.6 133.6H392.4C389.6 133.6 387.3 135.9 387.3 138.7Z" fill="white"/>
<path d="M68.2 7.59985H8.4C7.1 7.59985 6 8.79985 6 10.1999V76.8999C6 78.2999 7 79.4999 8.3 79.4999H23.3C24.6 79.4999 25.6 78.3999 25.6 76.8999V56.8999C25.6 55.4999 26.6 54.2999 27.9 54.2999H56.7C57.5 54.2999 58.3 53.7999 58.7 52.9999L70.1 31.4999C70.3 31.0999 70.4 30.6999 70.4 30.1999V10.1999C70.6 8.79985 69.5 7.59985 68.2 7.59985ZM25.7 34.3999V26.0999C25.7 24.6999 26.7 23.4999 28 23.4999H49.6C50.9 23.4999 51.9 24.5999 51.9 26.0999V34.3999C51.9 35.7999 50.9 36.9999 49.6 36.9999H28.1C26.8 36.9999 25.7 35.7999 25.7 34.3999Z" fill="#CC2C49"/>
<path d="M141.4 44.6999C141.1 43.9999 141.1 43.0999 141.5 42.3999L150.9 27.5999C151.1 27.1999 151.3 26.7999 151.3 26.3999V9.79985C151.3 8.59985 150.3 7.59985 149.1 7.59985H86C84.6 7.59985 83.5 8.69985 83.5 10.0999V76.7999C83.5 78.1999 84.6 79.2999 86 79.2999H101C102.4 79.2999 103.5 78.1999 103.5 76.7999V56.2999C103.5 54.8999 104.6 53.7999 106 53.7999H120.5C121.5 53.7999 122.4 54.3999 122.8 55.2999L132.2 77.7999C132.6 78.6999 133.5 79.2999 134.5 79.2999H152.1C153.9 79.2999 155.1 77.3998 154.4 75.6999L141.4 44.6999ZM126 24.8999L124.4 32.4999C124.1 33.5999 123.1 34.3999 122 34.3999H106C104.6 34.3999 103.5 33.2999 103.5 31.8999V24.2999C103.5 22.8999 104.6 21.7999 106 21.7999H123.6C125.2 21.6999 126.4 23.2999 126 24.8999Z" fill="#CC2C49"/>
<path d="M380.9 9.59988V22.0999C380.9 23.1999 380.1 23.9999 379.1 23.9999H339.7C338.7 23.9999 337.9 24.8999 337.9 25.8999V32.4999C337.9 33.5999 338.7 34.3999 339.7 34.3999H379.1C380.1 34.3999 380.9 35.2999 380.9 36.2999V51.9999C380.9 53.0999 380.1 53.8999 379.1 53.8999H339.7C338.7 53.8999 337.9 54.7999 337.9 55.7999V61.2999C337.9 62.3999 338.7 63.1999 339.7 63.1999H379.1C380.1 63.1999 380.9 64.0999 380.9 65.0999V77.3999C380.9 78.4999 380.1 79.2999 379.1 79.2999H320.8C319.8 79.2999 319 78.3999 319 77.3999V9.39988C319 8.29988 319.8 7.49988 320.8 7.49988H379.1C380.1 7.59988 380.9 8.49988 380.9 9.59988Z" fill="#CC2C49"/>
<path d="M228.3 7.59985H171.9C169.5 7.59985 167.6 9.19985 167.6 11.0999V75.7999C167.6 77.7999 169.5 79.2999 171.9 79.2999H228.3C230.7 79.2999 232.6 77.6999 232.6 75.7999V11.1999C232.7 9.19985 230.7 7.59985 228.3 7.59985ZM207.5 59.2999C207.5 60.3999 206.4 61.2999 205.1 61.2999H195.1C193.8 61.2999 192.7 60.3999 192.7 59.2999V27.7999C192.7 26.6999 193.8 25.7999 195.1 25.7999H205.1C206.4 25.7999 207.5 26.6999 207.5 27.7999V59.2999Z" fill="#CC2C49"/>
<path d="M397.601 7.59985H455.101C456.601 7.59985 457.901 8.69985 457.901 9.99985V25.5999C457.901 26.8999 456.701 27.9999 455.101 27.9999H420.701C419.201 27.9999 417.901 29.0999 417.901 30.3999V56.7999C417.901 58.0999 419.101 59.1999 420.701 59.1999H455.101C456.601 59.1999 457.901 60.2999 457.901 61.5999V77.1999C457.901 78.4999 456.701 79.5999 455.101 79.5999H397.601C396.101 79.5999 394.801 78.4999 394.801 77.1999V9.99985C394.901 8.69985 396.101 7.59985 397.601 7.59985Z" fill="#CC2C49"/>
<path d="M516.4 30.5999V76.9999C516.4 78.2999 515.4 79.3999 514.1 79.3999H496C494.7 79.3999 493.7 78.2999 493.7 76.9999V30.5999C493.7 29.2999 492.7 28.1999 491.4 28.1999H473.3C472 28.1999 471 27.0999 471 25.7999V9.99985C471 8.69985 472 7.59985 473.3 7.59985H536.9C538.2 7.59985 539.2 8.69985 539.2 9.99985V25.6999C539.2 26.9999 538.2 28.0999 536.9 28.0999H518.8C517.4 28.1999 516.4 29.1999 516.4 30.5999Z" fill="#CC2C49"/>
<path d="M302.4 7.8999H286.5C284.5 7.8999 282.8 9.5999 282.8 11.6999V59.0999C282.8 61.1999 281.2 62.8999 279.1 62.8999H267.8C265.4 62.8999 263.4 60.8999 263.4 58.4999V39.3999C263.4 37.9999 262.3 36.8999 260.9 36.8999H248.1C246.7 36.8999 245.6 37.9999 245.6 39.3999V65.7999H245.7C245.6 66.0999 245.6 66.3999 245.6 66.7999V75.6999C245.6 77.7999 247.2 79.4999 249.3 79.4999H302.4C304.4 79.4999 306.1 77.7999 306.1 75.6999V11.6999C306.1 9.5999 304.4 7.8999 302.4 7.8999Z" fill="#CC2C49"/>
</g>
<defs>
<clipPath id="clip0">
<rect width="670.9" height="254.4" fill="white"/>
</clipPath>
</defs>
</svg>
